<svg width="24" height="24" viewBox="0 0 24 24" fill="none" xmlns="http://www.w3.org/2000/svg">
<path d="M18.0637 16.2118H16.6302C16.0874 16.2118 15.9196 15.7803 14.9446 14.7921C14.0953 13.9697 13.7196 13.8592 13.5111 13.8592C13.2183 13.8592 13.1348 13.9428 13.1348 14.3467V15.6415C13.1348 15.9901 13.0236 16.1987 12.1045 16.1987C10.2506 16.0743 8.65713 15.0632 7.73213 13.5895L7.71832 13.5665C6.64463 12.2329 5.85319 10.6257 5.46174 8.86777L5.44727 8.7908C5.44727 8.58224 5.53082 8.38685 5.93477 8.38685H7.36832C7.73016 8.38685 7.86963 8.55395 8.00977 8.94343C8.71898 10.9908 9.90319 12.7868 10.3907 12.7868C10.5716 12.7868 10.6552 12.7033 10.6552 12.2441V10.1263C10.5992 9.15132 10.0841 9.06843 10.0841 8.7204C10.09 8.53422 10.2427 8.38553 10.4295 8.38553C10.4354 8.38553 10.4407 8.38553 10.4466 8.38619H10.446H12.7019C13.0085 8.38619 13.1196 8.5533 13.1196 8.91514V11.7704C13.1196 12.0763 13.2591 12.1882 13.3427 12.1882C13.5236 12.1882 13.6775 12.0763 14.0111 11.7428C14.7045 10.8961 15.2973 9.92764 15.7492 8.88356L15.7795 8.80461C15.8749 8.5658 16.1038 8.40001 16.3716 8.40001C16.3841 8.40001 16.396 8.40066 16.4085 8.40132H16.4065H17.84C18.2716 8.40132 18.3696 8.62303 18.2716 8.93027C17.6966 10.1967 17.0506 11.2849 16.3019 12.2928L16.3361 12.2441C16.1835 12.4947 16.1275 12.6059 16.3361 12.8855C16.4887 13.0941 16.9907 13.5257 17.3249 13.9158C17.8085 14.3941 18.2137 14.9507 18.5196 15.5651L18.5361 15.6013C18.6756 16.004 18.4663 16.2132 18.0624 16.2132L18.0637 16.2118ZM15.0288 2.13422H8.97161C3.44332 2.13422 2.13477 3.44277 2.13477 8.97106V15.0283C2.13477 20.5566 3.44332 21.8651 8.97161 21.8651H15.0288C20.5571 21.8651 21.8657 20.5566 21.8657 15.0283V8.97106C21.8657 3.44277 20.5427 2.13422 15.0288 2.13422Z" fill="#4F4F4F" stroke="#4F4F4F" stroke-width="0.000561404"/>
</svg>
