<svg width="23" height="23" viewBox="0 0 23 23" fill="none" xmlns="http://www.w3.org/2000/svg">
<path d="M12.9372 6.70833C13.2018 6.70833 13.4163 6.4938 13.4163 6.22917C13.4163 5.96453 13.2018 5.75 12.9372 5.75C12.6725 5.75 12.458 5.96453 12.458 6.22917C12.458 6.4938 12.6725 6.70833 12.9372 6.70833Z" stroke="white" stroke-width="1.728" stroke-linecap="round" stroke-linejoin="round"/>
<path d="M16.7707 10.5416C17.0353 10.5416 17.2498 10.3271 17.2498 10.0624C17.2498 9.79778 17.0353 9.58325 16.7707 9.58325C16.506 9.58325 16.2915 9.79778 16.2915 10.0624C16.2915 10.3271 16.506 10.5416 16.7707 10.5416Z" stroke="white" stroke-width="1.728" stroke-linecap="round" stroke-linejoin="round"/>
<path d="M8.14567 7.66659C8.41031 7.66659 8.62484 7.45206 8.62484 7.18742C8.62484 6.92278 8.41031 6.70825 8.14567 6.70825C7.88103 6.70825 7.6665 6.92278 7.6665 7.18742C7.6665 7.45206 7.88103 7.66659 8.14567 7.66659Z" stroke="white" stroke-width="1.728" stroke-linecap="round" stroke-linejoin="round"/>
<path d="M6.22917 12.4583C6.4938 12.4583 6.70833 12.2438 6.70833 11.9792C6.70833 11.7145 6.4938 11.5 6.22917 11.5C5.96453 11.5 5.75 11.7145 5.75 11.9792C5.75 12.2438 5.96453 12.4583 6.22917 12.4583Z" stroke="white" stroke-width="1.728" stroke-linecap="round" stroke-linejoin="round"/>
<path d="M11.4998 1.91663C6.229 1.91663 1.9165 6.22913 1.9165 11.5C1.9165 16.7708 6.229 21.0833 11.4998 21.0833C12.3873 21.0833 13.0792 20.3684 13.0792 19.4656C13.0792 19.0468 12.9067 18.6654 12.6604 18.3875C12.3825 18.1105 12.2406 17.7627 12.2406 17.3094C12.237 17.0985 12.2759 16.889 12.3549 16.6934C12.434 16.4978 12.5516 16.3201 12.7007 16.171C12.8499 16.0218 13.0276 15.9042 13.2231 15.8252C13.4187 15.7461 13.6282 15.7072 13.8391 15.7109H15.752C18.6758 15.7109 21.0755 13.3122 21.0755 10.3883C21.0496 5.76146 16.7333 1.91663 11.4998 1.91663Z" stroke="white" stroke-width="1.728" stroke-linecap="round" stroke-linejoin="round"/>
</svg>
