<svg width="48" height="32" viewBox="0 0 48 32" fill="none" xmlns="http://www.w3.org/2000/svg">
<rect width="48" height="32" rx="16" fill="#4E54FF"/>
<path fill-rule="evenodd" clip-rule="evenodd" d="M23.0494 7.39375C23.5744 6.86874 24.4256 6.86875 24.9506 7.39375L27.5216 9.96474C28.0466 10.4897 28.0466 11.3409 27.5216 11.8659L24.9506 14.4369C24.4256 14.9619 23.5744 14.9619 23.0494 14.4369L20.4784 11.8659C19.9534 11.3409 19.9534 10.4897 20.4784 9.96474L23.0494 7.39375ZM24 8.98873L22.0734 10.9153L24 12.842L25.9266 10.9153L24 8.98873ZM17.9647 12.4784C18.4897 11.9534 19.3409 11.9534 19.8659 12.4784L22.4369 15.0494C22.9619 15.5744 22.9619 16.4256 22.4369 16.9506L19.8659 19.5216C19.3409 20.0466 18.4897 20.0466 17.9647 19.5216L15.3938 16.9506C14.8687 16.4256 14.8688 15.5744 15.3938 15.0494L17.9647 12.4784ZM18.9153 14.0734L16.9887 16L18.9153 17.9266L20.842 16L18.9153 14.0734ZM28.1341 12.4784C28.659 11.9534 29.5103 11.9534 30.0353 12.4784L32.6063 15.0494C33.1312 15.5744 33.1312 16.4256 32.6063 16.9506L30.0353 19.5216C29.5103 20.0466 28.659 20.0466 28.1341 19.5216L25.5631 16.9506C25.0381 16.4256 25.0381 15.5744 25.5631 15.0494L28.1341 12.4784ZM29.0847 14.0734L27.1581 16L29.0847 17.9266L31.0113 16L29.0847 14.0734ZM23.0494 17.5631C23.5744 17.0381 24.4256 17.0381 24.9506 17.5631L27.5216 20.1341C28.0466 20.659 28.0466 21.5103 27.5216 22.0353L24.9506 24.6063C24.4256 25.1312 23.5744 25.1312 23.0494 24.6063L20.4784 22.0353C19.9534 21.5103 19.9534 20.659 20.4784 20.1341L23.0494 17.5631ZM24 19.1581L22.0734 21.0847L24 23.0113L25.9266 21.0847L24 19.1581Z" fill="white"/>
</svg>
