<svg width="22" height="22" viewBox="0 0 22 22" fill="none" xmlns="http://www.w3.org/2000/svg">
<path fill-rule="evenodd" clip-rule="evenodd" d="M9.83819 0.481252C10.4798 -0.160423 11.5202 -0.160412 12.1618 0.481252L15.3042 3.62357C15.9458 4.26523 15.9458 5.3056 15.3042 5.94727L12.1618 9.08953C11.5202 9.73127 10.4798 9.73127 9.83819 9.08953L6.69585 5.94727C6.05418 5.30559 6.05418 4.26523 6.69585 3.62357L9.83819 0.481252ZM11 2.43067L8.64527 4.78541L11 7.14016L13.3548 4.78542L11 2.43067ZM3.62356 6.69584C4.26524 6.05417 5.3056 6.05417 5.94727 6.69584L9.08953 9.83819C9.73127 10.4798 9.73127 11.5202 9.08953 12.1618L5.94727 15.3042C5.30559 15.9458 4.26523 15.9458 3.62356 15.3042L0.481252 12.1618C-0.160423 11.5202 -0.160412 10.4798 0.481252 9.83819L3.62356 6.69584ZM4.78541 8.64526L2.43067 11L4.78541 13.3548L7.14016 11L4.78541 8.64526ZM16.0528 6.69585C16.6944 6.05418 17.7348 6.05418 18.3765 6.69585L21.5188 9.83819C22.1604 10.4798 22.1604 11.5202 21.5188 12.1618L18.3765 15.3042C17.7348 15.9458 16.6944 15.9458 16.0528 15.3042L12.9105 12.1618C12.2688 11.5202 12.2688 10.4798 12.9105 9.83819L16.0528 6.69585ZM17.2146 8.64526L14.8599 11L17.2146 13.3548L19.5694 11L17.2146 8.64526ZM9.83819 12.9105C10.4798 12.2688 11.5202 12.2688 12.1618 12.9105L15.3042 16.0528C15.9458 16.6944 15.9458 17.7348 15.3042 18.3765L12.1618 21.5188C11.5202 22.1604 10.4798 22.1604 9.83819 21.5188L6.69584 18.3765C6.05417 17.7348 6.05417 16.6944 6.69584 16.0528L9.83819 12.9105ZM11 14.8599L8.64525 17.2146L11 19.5694L13.3548 17.2146L11 14.8599Z" fill="white"/>
</svg>
